{"scene":0,"asset":{"generator":"ImageToStl.com","version":"2.0"},"scenes":[{"name":"Scene","nodes":[0]}],"nodes":[{"name":"Node0","children":[1]},{"name":"Node1","mesh":0}],"materials":[{"name":"x1","pbrMetallicRoughness":{"baseColorFactor":[0.85,0.85,0.85,1.0],"metallicFactor":0.05,"roughnessFactor":0.5},"doubleSided":true}],"meshes":[{"name":"Mesh0","primitives":[{"indices":2,"material":0,"attributes":{"POSITION":0,"NORMAL":1}}]}],"accessors":[{"bufferView":0,"componentType":5126,"count":24,"type":"VEC3","min":[45.786434,45.984047,757.0767],"max":[717.8704,1175.2681,763.4267]},{"bufferView":1,"componentType":5126,"count":24,"type":"VEC3"},{"bufferView":2,"componentType":5123,"count":36,"type":"SCALAR"}],"bufferViews":[{"target":34962,"buffer":0,"byteLength":288,"byteOffset":0},{"target":34962,"buffer":0,"byteLength":288,"byteOffset":288},{"target":34963,"buffer":0,"byteLength":72,"byteOffset":576}],"buffers":[{"byteLength":648,"uri":"data:application/octet-stream;base64,"}]}